<svg width="30" height="30" viewBox="0 0 30 30" fill="none" xmlns="http://www.w3.org/2000/svg">
<path d="M23.9967 27.9991H1.99972V6.00216H15.2179L17.2176 4.00244H1.99972C1.46936 4.00244 0.960726 4.21313 0.585705 4.58815C0.210684 4.96317 0 5.4718 0 6.00216V27.9991C0 28.5295 0.210684 29.0381 0.585705 29.4131C0.960726 29.7881 1.46936 29.9988 1.99972 29.9988H23.9967C24.527 29.9988 25.0357 29.7881 25.4107 29.4131C25.7857 29.0381 25.9964 28.5295 25.9964 27.9991V13.0012L23.9967 15.0009V27.9991Z" fill="url(#paint0_linear_174_65)"/>
<path d="M29.5256 3.84258L26.1561 0.473053C26.0066 0.323104 25.8289 0.204134 25.6333 0.122959C25.4377 0.0417842 25.228 0 25.0163 0C24.8045 0 24.5948 0.0417842 24.3992 0.122959C24.2036 0.204134 24.026 0.323104 23.8764 0.473053L10.1683 14.2611L9.05849 19.0705C9.01121 19.3036 9.01618 19.5443 9.07304 19.7753C9.12991 20.0063 9.23726 20.2218 9.38737 20.4063C9.53748 20.5908 9.72662 20.7398 9.94118 20.8425C10.1557 20.9452 10.3904 20.999 10.6283 21.0002C10.7512 21.0137 10.8753 21.0137 10.9982 21.0002L15.8475 19.9303L29.5256 6.12227C29.6756 5.97273 29.7946 5.79507 29.8757 5.59948C29.9569 5.40388 29.9987 5.1942 29.9987 4.98243C29.9987 4.77066 29.9569 4.56097 29.8757 4.36537C29.7946 4.16978 29.6756 3.99212 29.5256 3.84258ZM14.8077 18.0806L11.1482 18.8905L11.9981 15.261L22.3166 4.87244L25.1363 7.69205L14.8077 18.0806ZM26.2661 6.56221L23.4465 3.7426L24.9963 2.16282L27.8359 5.00242L26.2661 6.56221Z" fill="url(#paint1_linear_174_65)"/>
<defs>
<linearGradient id="paint0_linear_174_65" x1="-0.700883" y1="29.9989" x2="25.1468" y2="29.9989" gradientUnits="userSpaceOnUse">
<stop offset="0.0739833" stop-color="#0022C1"/>
<stop offset="1" stop-color="#00B1FF"/>
</linearGradient>
<linearGradient id="paint1_linear_174_65" x1="8.46094" y1="21.0104" x2="29.3133" y2="21.0104" gradientUnits="userSpaceOnUse">
<stop offset="0.0739833" stop-color="#0022C1"/>
<stop offset="1" stop-color="#00B1FF"/>
</linearGradient>
</defs>
</svg>
