<svg width="1015" height="805" viewBox="0 0 1015 805" fill="none" xmlns="http://www.w3.org/2000/svg">
<path opacity="0.2" fill-rule="evenodd" clip-rule="evenodd" d="M473.37 782.435C765.566 815.769 1029.35 606.892 1062.55 315.895C1095.74 24.8987 885.782 -238.023 593.586 -271.356C301.39 -304.69 37.6063 -95.8132 4.40948 195.183C-9.60255 318.01 19.7064 435.835 80.235 533.504C110.85 582.905 49.297 804.7 49.297 804.7C49.297 804.7 297.566 735.233 358.131 756.259C394.718 768.961 433.269 777.86 473.37 782.435ZM490.339 564.59C657.922 583.708 809.209 463.911 828.249 297.016C847.288 130.121 726.869 -20.6724 559.286 -39.7902C391.703 -58.9081 240.416 60.889 221.376 227.784C202.337 394.679 322.756 545.472 490.339 564.59Z" fill="#DEE4FE"/>
</svg>
