<svg width="611" height="649" viewBox="0 0 611 649" fill="none" xmlns="http://www.w3.org/2000/svg">
<g opacity="0.2">
<path d="M536.101 922.265L-155.492 1031.7C-203.846 1039.33 -249.655 1006.25 -257.29 957.894L-369.904 244.67C-377.539 196.316 -344.455 150.506 -296.101 142.872L395.492 32.8021C443.846 25.1673 489.655 58.2517 497.29 106.606L609.904 819.83C617.539 868.821 584.455 914.63 536.101 922.265Z" fill="#E0E7FF"/>
<path d="M-169.486 1013.88C-203.843 1013.88 -233.11 989.07 -238.2 954.714L-351.451 241.489C-354.632 223.038 -350.178 204.587 -338.726 189.317C-327.91 174.048 -311.368 164.504 -292.917 161.323L398.039 51.8897C401.857 51.2534 405.674 51.2534 408.856 51.2534C443.213 51.2534 472.479 76.0668 477.569 110.424L590.184 823.648C595.91 861.823 569.824 897.452 532.286 903.814L-158.034 1012.61C-161.851 1013.25 -165.669 1013.88 -169.486 1013.88Z" fill="white"/>
<path d="M453.392 114.241L477.569 265.029L-302.46 388.46L-326.001 237.671C-329.818 213.494 -313.276 190.589 -289.099 186.772L401.857 77.3388C426.67 73.5214 449.575 90.0636 453.392 114.241Z" fill="#E0E7FF"/>
<path d="M149.203 400.419L51.7988 415.833L67.2127 513.237L164.617 497.823L149.203 400.419Z" fill="#E0E7FF"/>
<path d="M319.749 373.687L222.345 389.101L237.759 486.505L335.163 471.091L319.749 373.687Z" fill="#E0E7FF"/>
<path d="M490.203 346.326L392.799 361.74L408.213 459.144L505.617 443.731L490.203 346.326Z" fill="#E0E7FF"/>
<path d="M6.70028 606.62L-90.7039 622.034L-75.29 719.438L22.1141 704.024L6.70028 606.62Z" fill="#E0E7FF"/>
<path d="M347.696 552.527L250.292 567.941L265.705 665.345L363.109 649.931L347.696 552.527Z" fill="#E0E7FF"/>
<path d="M518.255 525.795L420.851 541.209L436.264 638.613L533.669 623.199L518.255 525.795Z" fill="#E0E7FF"/>
<path d="M225.615 570.425L153.084 670.314L132.724 698.309C127.635 705.308 117.455 707.216 109.82 702.126L81.1891 681.131L38.561 649.955L47.4684 637.866C58.9207 621.96 81.1891 618.143 97.7313 630.231L111.092 640.411L153.72 581.877C170.263 558.973 202.711 553.883 225.615 570.425Z" fill="white"/>
<path d="M72.2807 294.933C108.473 294.933 137.813 265.593 137.813 229.4C137.813 193.208 108.473 163.868 72.2807 163.868C36.088 163.868 6.74805 193.208 6.74805 229.4C6.74805 265.593 36.088 294.933 72.2807 294.933Z" fill="white"/>
<path d="M339.5 252.305C375.693 252.305 405.033 222.965 405.033 186.772C405.033 150.579 375.693 121.239 339.5 121.239C303.308 121.239 273.968 150.579 273.968 186.772C273.968 222.965 303.308 252.305 339.5 252.305Z" fill="white"/>
<path d="M93.281 167.685L77.375 68.432C74.8301 51.8898 58.9241 40.4375 42.3819 42.9825C25.8396 45.5274 14.3873 61.4334 16.9323 77.9756L32.8383 177.229C14.3873 191.226 3.57125 214.767 7.38868 239.58C13.1148 275.21 46.1993 299.387 81.8287 293.661C117.458 287.935 141.635 254.85 135.909 219.221C132.728 194.407 114.913 174.684 93.281 167.685Z" fill="white"/>
<path d="M68.4679 205.223C58.9244 206.495 50.017 200.133 48.1083 190.589L30.2936 76.0663C29.0211 66.5227 35.3835 57.6154 44.9271 55.7067C54.4707 54.4342 63.378 60.7966 65.2867 70.3402L83.1015 184.863C84.3739 194.407 78.0115 203.314 68.4679 205.223Z" fill="#E0E7FF"/>
<path d="M360.494 125.057L345.224 25.8036C342.679 9.2614 326.773 -2.19092 310.231 0.35404C293.689 2.899 282.236 18.805 284.781 35.3472L300.687 134.601C282.236 148.598 271.42 172.139 275.238 196.952C280.964 232.581 314.048 256.759 349.678 251.032C385.307 245.306 409.484 212.222 403.758 176.592C399.941 151.779 382.762 132.692 360.494 125.057Z" fill="white"/>
<path d="M335.687 162.595C326.143 163.867 317.236 157.505 315.327 147.962L297.512 33.4384C296.24 23.8948 302.602 14.9874 312.146 13.0787C321.689 11.8062 330.597 18.1686 332.505 27.7122L350.32 142.235C352.229 151.779 345.23 161.323 335.687 162.595Z" fill="#E0E7FF"/>
</g>
</svg>
